<svg width="60" height="60" viewBox="0 0 80 80" fill="none" xmlns="http://www.w3.org/2000/svg">
<path d="M75.0034 40.7773C75.0034 37.8996 74.7652 35.7996 74.2495 33.6218H40.7178V46.6106H60.4001C60.0035 49.8384 57.8606 54.6996 53.0986 57.9661L53.0319 58.4009L63.634 66.45L64.3685 66.5218C71.1144 60.4162 75.0034 51.4328 75.0034 40.7773" fill="#4285F4"/>
<path d="M40.7158 75C50.3584 75 58.4536 71.8887 64.3664 66.5222L53.0966 57.9663C50.0808 60.0275 46.0331 61.4664 40.7158 61.4664C31.2714 61.4664 23.2556 55.361 20.3982 46.922L19.9794 46.9569L8.9552 55.3181L8.81104 55.7108C14.684 67.1442 26.7474 75 40.7158 75Z" fill="#34A853"/>
<path d="M20.4001 46.9221C19.6461 44.7444 19.2098 42.4108 19.2098 39.9999C19.2098 37.5886 19.6461 35.2553 20.3604 33.0776L20.3404 32.6138L9.17806 24.1183L8.81285 24.2886C6.39232 29.0331 5.00342 34.361 5.00342 39.9999C5.00342 45.6387 6.39232 50.9663 8.81285 55.7108L20.4001 46.9221" fill="#FBBC05"/>
<path d="M40.7159 18.5332C47.4222 18.5332 51.9459 21.3721 54.5254 23.7445L64.6047 14.1C58.4144 8.46112 50.3587 5 40.7159 5C26.7475 5 14.684 12.8555 8.81104 24.2887L20.3586 33.0777C23.2557 24.6389 31.2715 18.5332 40.7159 18.5332" fill="#EB4335"/>
</svg>
