<svg width="209" height="183" viewBox="0 0 icon_emitir_relatorio copy.svg209 183" fill="none" xmlns="http://www.w3.org/2000/svg">
<rect width="208.75" height="182.02" fill="#C6FFCB"/>
<g filter="url(#filter0_i_321_189)">
<path d="M166.5 27.25L154 16L141.5 27.25L129 16L116.5 27.25L104 16L91.5 27.25L79 16L66.5 27.25L54 16V121H29V143.5C29 155.95 40.1667 166 54 166H154C167.833 166 179 155.95 179 143.5V16L166.5 27.25ZM162.333 143.5C162.333 147.625 158.583 151 154 151C149.417 151 145.667 147.625 145.667 143.5V121H70.6667V38.5H162.333V143.5Z" fill="white"/>
<path d="M129 53.5H79V68.5H129V53.5Z" fill="white"/>
<path d="M154 53.5H137.333V68.5H154V53.5Z" fill="white"/>
<path d="M129 76H79V91H129V76Z" fill="white"/>
<path d="M154 76H137.333V91H154V76Z" fill="white"/>
</g>
<defs>
<filter id="filter0_i_321_189" x="29" y="16" width="150" height="154" filterUnits="userSpaceOnUse" color-interpolation-filters="sRGB">
<feFlood flood-opacity="0" result="BackgroundImageFix"/>
<feBlend mode="normal" in="SourceGraphic" in2="BackgroundImageFix" result="shape"/>
<feColorMatrix in="SourceAlpha" type="matrix" values="0 0 0 0 0 0 0 0 0 0 0 0 0 0 0 0 0 0 127 0" result="hardAlpha"/>
<feOffset dy="4"/>
<feGaussianBlur stdDeviation="2"/>
<feComposite in2="hardAlpha" operator="arithmetic" k2="-1" k3="1"/>
<feColorMatrix type="matrix" values="0 0 0 0 0 0 0 0 0 0 0 0 0 0 0 0 0 0 0.25 0"/>
<feBlend mode="normal" in2="shape" result="effect1_innerShadow_321_189"/>
</filter>
</defs>
</svg>
