<svg width="209" height="183" viewBox="0 0 209 183" fill="none" xmlns="http://www.w3.org/2000/svg">
<rect width="208.75" height="182.02" fill="#9DF3FF"/>
<g filter="url(#filter0_d_321_187)">
<path d="M137.75 27C124.7 27 112.175 32.6754 104 41.6438C95.825 32.6754 83.3 27 70.25 27C47.15 27 29 43.956 29 65.5364C29 92.0214 54.5 113.602 93.125 146.393L104 155.571L114.875 146.323C153.5 113.602 179 92.0214 179 65.5364C179 43.956 160.85 27 137.75 27ZM104.75 135.953L104 136.654L103.25 135.953C67.55 105.754 44 85.7855 44 65.5364C44 51.5232 55.25 41.0132 70.25 41.0132C81.8 41.0132 93.05 47.9498 97.025 57.5489H111.05C114.95 47.9498 126.2 41.0132 137.75 41.0132C152.75 41.0132 164 51.5232 164 65.5364C164 85.7855 140.45 105.754 104.75 135.953Z" fill="white"/>
</g>
<defs>
<filter id="filter0_d_321_187" x="25" y="27" width="158" height="136.571" filterUnits="userSpaceOnUse" color-interpolation-filters="sRGB">
<feFlood flood-opacity="0" result="BackgroundImageFix"/>
<feColorMatrix in="SourceAlpha" type="matrix" values="0 0 0 0 0 0 0 0 0 0 0 0 0 0 0 0 0 0 127 0" result="hardAlpha"/>
<feOffset dy="4"/>
<feGaussianBlur stdDeviation="2"/>
<feComposite in2="hardAlpha" operator="out"/>
<feColorMatrix type="matrix" values="0 0 0 0 0 0 0 0 0 0 0 0 0 0 0 0 0 0 0.25 0"/>
<feBlend mode="normal" in2="BackgroundImageFix" result="effect1_dropShadow_321_187"/>
<feBlend mode="normal" in="SourceGraphic" in2="effect1_dropShadow_321_187" result="shape"/>
</filter>
</defs>
</svg>
