<svg width="300" height="298" viewBox="0 0 300 298" fill="none" xmlns="http://www.w3.org/2000/svg">
<g filter="url(#filter0_i_121_1512)">
<ellipse cx="150" cy="149" rx="150" ry="149" fill="#FF8282"/>
</g>
<path d="M67.5801 161H61.7354L66.0591 136.117H71.8867L67.5801 161ZM79.8506 142.492L79.4575 144.713C80.9386 142.959 82.7217 142.104 84.8066 142.15C86.5156 142.184 87.786 142.822 88.6177 144.064C89.4608 145.294 89.7684 147.06 89.5405 149.362L87.5923 161H81.9526L83.918 149.328C83.9635 148.929 83.9749 148.564 83.9521 148.234C83.8724 147.152 83.2344 146.61 82.0381 146.61C81.0469 146.588 80.1411 147.026 79.3208 147.926L77.0137 161H71.3911L74.604 142.509L79.8506 142.492ZM101.247 155.702C101.395 154.95 100.814 154.386 99.5039 154.01L98.2905 153.703C96.3081 153.179 94.8555 152.444 93.9326 151.498C93.0098 150.552 92.5768 149.43 92.6338 148.131C92.6908 146.354 93.4769 144.913 94.9922 143.808C96.5189 142.691 98.376 142.144 100.563 142.167C102.74 142.19 104.5 142.742 105.844 143.825C107.2 144.907 107.889 146.365 107.912 148.2L102.307 148.183C102.352 146.724 101.708 145.995 100.375 145.995C99.8058 145.995 99.276 146.166 98.7861 146.508C98.2962 146.838 98.0057 147.283 97.9146 147.841C97.7209 148.764 98.5355 149.396 100.358 149.738C101.942 150.114 103.167 150.552 104.033 151.054C104.899 151.544 105.559 152.153 106.015 152.882C106.471 153.611 106.682 154.489 106.647 155.514C106.613 156.631 106.249 157.628 105.554 158.505C104.859 159.382 103.85 160.083 102.529 160.607C101.219 161.131 99.7944 161.376 98.2563 161.342C96.9233 161.33 95.6815 161.051 94.5308 160.504C93.3914 159.958 92.4971 159.217 91.8477 158.283C91.2096 157.337 90.8792 156.255 90.8564 155.036L96.0859 155.07C96.1087 156.71 96.929 157.519 98.5469 157.497C99.2419 157.497 99.8343 157.343 100.324 157.035C100.814 156.716 101.122 156.272 101.247 155.702ZM117.585 161.342C115.933 161.33 114.458 160.943 113.159 160.18C111.871 159.405 110.897 158.334 110.236 156.967C109.576 155.588 109.313 154.073 109.45 152.421L109.501 151.942C109.809 148.9 110.863 146.496 112.663 144.73C114.475 142.953 116.691 142.099 119.311 142.167C120.895 142.19 122.25 142.594 123.378 143.38C124.506 144.155 125.332 145.232 125.856 146.61C126.381 147.978 126.551 149.516 126.369 151.225L126.044 153.566H115.039C115.061 154.534 115.335 155.32 115.859 155.924C116.383 156.528 117.146 156.847 118.149 156.881C119.778 156.927 121.242 156.3 122.541 155.001L124.899 158.129C124.204 159.12 123.23 159.901 121.977 160.47C120.735 161.028 119.374 161.319 117.893 161.342H117.585ZM118.952 146.593C118.155 146.57 117.46 146.821 116.867 147.345C116.286 147.869 115.779 148.747 115.346 149.977H120.969L121.071 149.481C121.14 149.083 121.151 148.707 121.105 148.354C120.912 147.214 120.194 146.627 118.952 146.593ZM140.4 147.721C139.796 147.63 139.215 147.573 138.657 147.55C136.971 147.505 135.683 148.086 134.794 149.293L132.709 161H127.087L130.3 142.509L135.546 142.492L135.119 144.918C136.327 143.05 137.751 142.116 139.392 142.116C139.859 142.116 140.44 142.195 141.135 142.355L140.4 147.721ZM146.04 161H140.4L143.613 142.509H149.252L146.04 161ZM144.108 137.843C144.086 137.012 144.376 136.317 144.98 135.758C145.595 135.2 146.336 134.921 147.202 134.921C148.079 134.921 148.808 135.172 149.389 135.673C149.982 136.174 150.289 136.829 150.312 137.638C150.335 138.481 150.044 139.182 149.44 139.74C148.837 140.287 148.096 140.561 147.219 140.561C146.364 140.561 145.635 140.316 145.031 139.826C144.439 139.324 144.131 138.664 144.108 137.843ZM162.958 147.721C162.355 147.63 161.774 147.573 161.215 147.55C159.529 147.505 158.242 148.086 157.353 149.293L155.268 161H149.646L152.858 142.509L158.105 142.492L157.678 144.918C158.885 143.05 160.31 142.116 161.95 142.116C162.417 142.116 162.998 142.195 163.693 142.355L162.958 147.721ZM188.525 151.088H179.143L177.417 161H171.572L175.878 136.117H192.062L191.259 140.749H180.937L179.946 146.474H189.328L188.525 151.088ZM200.454 142.167C202.106 142.19 203.535 142.606 204.743 143.415C205.951 144.212 206.834 145.329 207.392 146.764C207.962 148.2 208.167 149.795 208.007 151.549L207.973 151.925C207.654 154.762 206.6 157.052 204.812 158.795C203.023 160.539 200.812 161.387 198.181 161.342C196.54 161.319 195.122 160.915 193.925 160.128C192.729 159.331 191.84 158.22 191.259 156.796C190.69 155.372 190.485 153.788 190.644 152.045C190.929 149.014 191.966 146.599 193.754 144.799C195.555 142.999 197.788 142.121 200.454 142.167ZM196.267 152.045L196.215 153.053C196.056 155.594 196.831 156.887 198.54 156.933C200.75 157.001 202.032 155.207 202.385 151.549L202.453 149.994C202.476 148.969 202.282 148.154 201.872 147.55C201.473 146.935 200.881 146.616 200.095 146.593C199.058 146.559 198.203 146.986 197.531 147.875C196.87 148.752 196.449 150.142 196.267 152.045ZM219.458 137.912L218.654 142.509H221.611L220.91 146.508H217.954L216.518 155.001C216.438 155.583 216.472 156.021 216.621 156.317C216.78 156.614 217.167 156.773 217.783 156.796C218.022 156.807 218.512 156.779 219.252 156.71L218.842 160.88C217.897 161.188 216.888 161.33 215.817 161.308C214.074 161.285 212.77 160.772 211.904 159.77C211.038 158.767 210.685 157.405 210.844 155.685L212.348 146.508H210.058L210.742 142.509H213.032L213.835 137.912H219.458ZM231.01 142.167C232.662 142.19 234.092 142.606 235.3 143.415C236.507 144.212 237.39 145.329 237.949 146.764C238.518 148.2 238.723 149.795 238.564 151.549L238.53 151.925C238.211 154.762 237.157 157.052 235.368 158.795C233.579 160.539 231.369 161.387 228.737 161.342C227.097 161.319 225.678 160.915 224.482 160.128C223.286 159.331 222.397 158.22 221.816 156.796C221.246 155.372 221.041 153.788 221.201 152.045C221.486 149.014 222.522 146.599 224.311 144.799C226.111 142.999 228.344 142.121 231.01 142.167ZM226.823 152.045L226.772 153.053C226.612 155.594 227.387 156.887 229.096 156.933C231.306 157.001 232.588 155.207 232.941 151.549L233.01 149.994C233.033 148.969 232.839 148.154 232.429 147.55C232.03 146.935 231.438 146.616 230.651 146.593C229.615 146.559 228.76 146.986 228.088 147.875C227.427 148.752 227.006 150.142 226.823 152.045Z" fill="white"/>
<defs>
<filter id="filter0_i_121_1512" x="0" y="0" width="300" height="302" filterUnits="userSpaceOnUse" color-interpolation-filters="sRGB">
<feFlood flood-opacity="0" result="BackgroundImageFix"/>
<feBlend mode="normal" in="SourceGraphic" in2="BackgroundImageFix" result="shape"/>
<feColorMatrix in="SourceAlpha" type="matrix" values="0 0 0 0 0 0 0 0 0 0 0 0 0 0 0 0 0 0 127 0" result="hardAlpha"/>
<feOffset dy="4"/>
<feGaussianBlur stdDeviation="2"/>
<feComposite in2="hardAlpha" operator="arithmetic" k2="-1" k3="1"/>
<feColorMatrix type="matrix" values="0 0 0 0 0 0 0 0 0 0 0 0 0 0 0 0 0 0 0.25 0"/>
<feBlend mode="normal" in2="shape" result="effect1_innerShadow_121_1512"/>
</filter>
</defs>
</svg>
